HIERARCHY
ROOT SpineBase
{
  OFFSET 0.000000 0.000000 0.000000
  CHANNELS 6 Xposition Yposition Zposition Zrotation Xrotation Yrotation
  JOINT SpineMid
  {
    OFFSET -0.000000 28.312089 0.000000
    CHANNELS 3 Zrotation Xrotation Yrotation
    JOINT SpineShoulder
    {
      OFFSET -0.168418 21.114813 -0.615100
      CHANNELS 3 Zrotation Xrotation Yrotation
      JOINT Neck
      {
        OFFSET -0.088976 6.961711 -0.510582
        CHANNELS 3 Zrotation Xrotation Yrotation
        JOINT Head
        {
          OFFSET -4.719052 9.737189 3.417142
          CHANNELS 3 Zrotation Xrotation Yrotation
          End Site
          {
            OFFSET 0 0 0
          }
        }
      }
      JOINT ShoulderLeft
      {
        OFFSET -2.178823 -6.883895 -23.154214
        CHANNELS 3 Zrotation Xrotation Yrotation
        JOINT ElbowLeft
        {
          OFFSET -10.209531 -22.268009 8.180112
          CHANNELS 3 Zrotation Xrotation Yrotation
          JOINT WristLeft
          {
            OFFSET -3.914253 -16.433826 1.500544
            CHANNELS 3 Zrotation Xrotation Yrotation
            JOINT HandLeft
            {
              OFFSET -0.383144 3.341922 -0.096535
              CHANNELS 3 Zrotation Xrotation Yrotation
              JOINT HandTipLeft
              {
                OFFSET -1.169440 -3.976436 1.030142
                CHANNELS 3 Zrotation Xrotation Yrotation
                End Site
                {
                  OFFSET 0 0 0
                }
              }
              JOINT ThumbLeft
              {
                OFFSET -1.721979 0.067695 -3.384196
                CHANNELS 3 Zrotation Xrotation Yrotation
                End Site
                {
                  OFFSET 0 0 0
                }
              }
            }
          }
        }
      }
      JOINT ShoulderRight
      {
        OFFSET 4.627082 -4.184797 -13.181940
        CHANNELS 3 Zrotation Xrotation Yrotation
        JOINT ElbowRight
        {
          OFFSET 6.813572 -19.327513 -8.611223
          CHANNELS 3 Zrotation Xrotation Yrotation
          JOINT WristRight
          {
            OFFSET -22.760934 -3.815327 4.771716
            CHANNELS 3 Zrotation Xrotation Yrotation
            JOINT HandRight
            {
              OFFSET -5.093480 -1.077065 2.703389
              CHANNELS 3 Zrotation Xrotation Yrotation
              JOINT HandTipRight
              {
                OFFSET -4.634243 -4.514414 2.499771
                CHANNELS 3 Zrotation Xrotation Yrotation
                End Site
                {
                  OFFSET 0 0 0
                }
              }
              JOINT ThumbRight
              {
                OFFSET 1.240915 8.211141 2.313906
                CHANNELS 3 Zrotation Xrotation Yrotation
                End Site
                {
                  OFFSET 0 0 0
                }
              }
            }
          }
        }
      }
    }
  }
  JOINT HipLeft
  {
    OFFSET -3.598843 -0.259127 -2.750348
    CHANNELS 3 Zrotation Xrotation Yrotation
    JOINT KneeLeft
    {
      OFFSET 16.081055 -32.807153 16.829638
      CHANNELS 3 Zrotation Xrotation Yrotation
      JOINT AnkleLeft
      {
        OFFSET -10.858620 -34.093011 -19.698375
        CHANNELS 3 Zrotation Xrotation Yrotation
        JOINT FootLeft
        {
          OFFSET 1.549916 -7.889967 -0.719154
          CHANNELS 3 Zrotation Xrotation Yrotation
          End Site
          {
            OFFSET 0 0 0
          }
        }
      }
    }
  }
  JOINT HipRight
  {
    OFFSET 3.196965 1.734589 -4.149802
    CHANNELS 3 Zrotation Xrotation Yrotation
    JOINT KneeRight
    {
      OFFSET -5.884868 -34.528719 -2.526200
      CHANNELS 3 Zrotation Xrotation Yrotation
      JOINT AnkleRight
      {
        OFFSET 7.813420 -34.776929 3.476146
        CHANNELS 3 Zrotation Xrotation Yrotation
        JOINT FootRight
        {
          OFFSET 5.981089 -3.440307 4.479755
          CHANNELS 3 Zrotation Xrotation Yrotation
          End Site
          {
            OFFSET 0 0 0
          }
        }
      }
    }
  }
}
MOTION
Frames: 6
Frame Time: 0.033333
7.857377 75.406340 337.152735 0.730088 -3.842784 51.165776 -0.402141 -0.412856 -51.153369 0.307019 -0.138759 0.024278 -7.179578 3.325852 2.032414 0.000000 0.000000 0.000000 -7.259097 29.546694 -12.664397 -107.106636 9.254439 -28.045439 147.227698 7.895024 8.028255 -164.969264 28.921428 -0.585942 0.000000 0.000000 0.000000 0.000000 0.000000 0.000000 -37.450724 -1.980825 17.727993 21.467384 4.747133 -42.183333 -6.654571 5.045663 -35.270967 -24.839749 -29.716559 17.540456 0.000000 0.000000 0.000000 0.000000 0.000000 0.000000 3.891721 0.777357 -50.108797 30.137777 -42.269114 9.036456 -51.089283 -6.739046 15.145258 0.000000 0.000000 0.000000 2.407919 -8.322047 -50.615637 -8.373498 4.928679 -0.566638 -0.344690 2.310807 0.493067 0.000000 0.000000 0.000000
7.680070 75.296741 336.696500 0.713808 -3.494975 38.833507 -0.508382 -0.555111 -38.822546 0.318597 -0.147827 0.019885 -7.570662 4.032965 2.717759 0.000000 0.000000 0.000000 -3.131607 29.469678 -12.673592 -108.962062 10.867849 -27.977146 150.816214 1.831825 8.953204 -168.466231 24.506547 4.593013 0.000000 0.000000 0.000000 0.000000 0.000000 0.000000 -41.044970 -3.142943 19.381167 30.197308 2.380525 -44.561964 -10.230973 2.803622 -34.414953 -24.545618 -13.713405 18.111464 0.000000 0.000000 0.000000 0.000000 0.000000 0.000000 3.538760 1.404687 -37.708379 30.843992 -43.090227 9.576313 -47.039994 59.613102 28.822237 0.000000 0.000000 0.000000 2.346682 -6.515501 -38.099152 -5.760548 4.731171 -0.871337 -0.841581 2.423223 0.479994 0.000000 0.000000 0.000000
7.726473 75.167700 336.188371 0.912233 -3.156757 29.928002 -0.633590 -0.691521 -29.905664 0.264822 -0.159339 0.020957 -8.443135 5.143535 3.797434 0.000000 0.000000 0.000000 -1.542435 30.095604 -13.099344 -110.598172 14.993111 -26.181831 163.703104 2.449936 11.859814 -176.137814 28.605151 14.513144 0.000000 0.000000 0.000000 0.000000 0.000000 0.000000 -46.066120 -4.609438 21.722311 39.700763 -1.429624 -45.448664 -12.294980 1.235951 -32.914948 -28.964976 -9.011604 12.950705 0.000000 0.000000 0.000000 0.000000 0.000000 0.000000 3.546238 1.452351 -28.449688 30.377538 -43.902948 9.726762 -112.072796 83.586696 97.984874 0.000000 0.000000 0.000000 0.687799 -5.225793 -28.963918 -2.688788 4.606610 -1.328173 -1.379616 2.768251 0.520160 0.000000 0.000000 0.000000
8.016751 75.023464 335.722678 1.385547 -2.805846 23.296059 -0.778891 -0.788539 -23.247184 0.141388 -0.144806 0.030006 -9.362984 5.709288 4.561803 0.000000 0.000000 0.000000 -2.280467 30.606922 -13.543710 -108.018883 18.260035 -23.003394 170.419071 8.211198 15.693777 174.404609 34.470249 21.423884 0.000000 0.000000 0.000000 0.000000 0.000000 0.000000 -50.930389 -5.968264 23.935265 49.696838 -6.226407 -44.954116 -18.104675 -0.591612 -35.152603 -19.712524 17.913439 20.688019 0.000000 0.000000 0.000000 0.000000 0.000000 0.000000 3.472834 0.994265 -21.533860 29.247689 -44.022145 9.439815 -178.606189 77.957841 165.925833 0.000000 0.000000 0.000000 -2.079530 -4.290273 -22.062937 0.785666 4.314151 -1.871813 -1.892113 3.219127 0.591317 0.000000 0.000000 0.000000
8.435933 75.100385 335.245558 1.932435 -2.566312 19.682236 -0.940456 -0.836507 -19.604320 -0.037054 -0.145333 0.039124 -10.044640 6.607034 5.362948 0.000000 0.000000 0.000000 -7.316837 32.331972 -14.535487 -97.608402 9.801401 -26.515328 167.998128 5.172425 14.468660 173.510057 24.061106 8.315024 0.000000 0.000000 0.000000 0.000000 0.000000 0.000000 -54.815135 -6.826010 25.910929 56.867933 -10.260044 -44.212122 -23.735422 -4.395126 -31.733036 -13.514859 34.585689 18.578431 0.000000 0.000000 0.000000 0.000000 0.000000 0.000000 2.593939 1.221604 -18.011981 29.893914 -43.806966 9.321259 175.990409 73.613857 171.478908 0.000000 0.000000 0.000000 -5.036579 -3.794213 -18.185768 3.927608 3.950454 -2.410578 -2.321799 3.745570 0.691043 0.000000 0.000000 0.000000
8.553610 75.211751 334.966880 1.987180 -2.629819 16.346592 -0.818324 -0.793163 -16.263998 -0.118818 -0.119508 0.040251 -10.775910 7.189877 6.062796 0.000000 0.000000 0.000000 -17.314102 34.506794 -15.275487 -77.713745 -0.713924 -23.092939 162.890818 8.397542 16.597299 172.551848 18.243871 -2.118875 0.000000 0.000000 0.000000 0.000000 0.000000 0.000000 -59.226050 -7.711820 28.520714 63.771060 -14.750634 -43.399138 -26.436689 -7.993984 -25.591860 -5.205378 42.035621 11.605964 0.000000 0.000000 0.000000 0.000000 0.000000 0.000000 2.521540 1.372569 -14.680061 30.043878 -43.469653 8.890921 177.170602 71.536477 169.992456 0.000000 0.000000 0.000000 -6.102043 -3.166703 -14.794513 5.622886 2.938905 -2.599032 -2.610513 4.243815 0.796680 0.000000 0.000000 0.000000
